HIERARCHY
ROOT Hips
{
	OFFSET -0.001795 -0.223333 0.028219
	CHANNELS 6 Xposition Yposition Zposition Zrotation Yrotation Xrotation 
	JOINT LeftUpLeg
	{
		OFFSET 0.069520 -0.091406 -0.006815
		CHANNELS 3 Zrotation Yrotation Xrotation
		JOINT LeftLeg
		{
			OFFSET 0.034277 -0.375199 -0.004496
			CHANNELS 3 Zrotation Yrotation Xrotation
			JOINT LeftFoot
			{
				OFFSET -0.013596 -0.397961 -0.043693
				CHANNELS 3 Zrotation Yrotation Xrotation
				JOINT LeftToe
				{
					OFFSET 0.026358 -0.055791 0.119288
					CHANNELS 3 Zrotation Yrotation Xrotation
					End Site
					{
						OFFSET 0.000000 0.000000 0.000000
					}
				}
			}
		}
	}
	JOINT RightUpLeg
	{
		OFFSET -0.067670 -0.090522 -0.004320
		CHANNELS 3 Zrotation Yrotation Xrotation
		JOINT RightLeg
		{
			OFFSET -0.038290 -0.382569 -0.008850
			CHANNELS 3 Zrotation Yrotation Xrotation
			JOINT RightFoot
			{
				OFFSET 0.015774 -0.398415 -0.042312
				CHANNELS 3 Zrotation Yrotation Xrotation
				JOINT RightToe
				{
					OFFSET -0.025372 -0.048144 0.123348
					CHANNELS 3 Zrotation Yrotation Xrotation
					End Site
					{
						OFFSET 0.000000 0.000000 0.000000
					}
				}
			}
		}
	}
	JOINT Spine
	{
		OFFSET -0.002533 0.108963 -0.026696
		CHANNELS 3 Zrotation Yrotation Xrotation
		JOINT Spine1
		{
			OFFSET 0.005487 0.135180 0.001092
			CHANNELS 3 Zrotation Yrotation Xrotation
			JOINT Spine2
			{
				OFFSET 0.001457 0.052922 0.025425
				CHANNELS 3 Zrotation Yrotation Xrotation
				JOINT Neck
				{
					OFFSET -0.002778 0.213870 -0.042857
					CHANNELS 3 Zrotation Yrotation Xrotation
					JOINT Head
					{
						OFFSET 0.005152 0.064970 0.051349
						CHANNELS 3 Zrotation Yrotation Xrotation
						End Site
						{
							OFFSET 0.000000 0.000000 0.000000
						}
					}
				}
				JOINT LeftShoulder
				{
					OFFSET 0.078845 0.121749 -0.034090
					CHANNELS 3 Zrotation Yrotation Xrotation
					JOINT LeftArm
					{
						OFFSET 0.090977 0.030469 -0.008868
						CHANNELS 3 Zrotation Yrotation Xrotation
						JOINT LeftForeArm
						{
							OFFSET 0.259612 -0.012772 -0.027456
							CHANNELS 3 Zrotation Yrotation Xrotation
							JOINT LeftHand
							{
								OFFSET 0.249234 0.008986 -0.001171
								CHANNELS 3 Zrotation Yrotation Xrotation
								End Site
								{
									OFFSET 0.000000 0.000000 0.000000
								}
							}
						}
					}
				}
				JOINT RightShoulder
				{
					OFFSET -0.081759 0.118833 -0.038615
					CHANNELS 3 Zrotation Yrotation Xrotation
					JOINT RightArm
					{
						OFFSET -0.096012 0.032551 -0.009143
						CHANNELS 3 Zrotation Yrotation Xrotation
						JOINT RightForeArm
						{
							OFFSET -0.253742 -0.013329 -0.021401
							CHANNELS 3 Zrotation Yrotation Xrotation
							JOINT RightHand
							{
								OFFSET -0.255298 0.007772 -0.005559
								CHANNELS 3 Zrotation Yrotation Xrotation
								End Site
								{
									OFFSET 0.000000 0.000000 0.000000
								}
							}
						}
					}
				}
			}
		}
	}
}
MOTION
Frames: 8
Frame Time: 0.050000
-0.864972 0.758847 5.916733 -1.463671 -10.225360 -23.796703 3.016763 -0.855632 -20.750775 3.080867 -1.437656 84.292058 6.031665 7.272702 -18.782009 0.000000 0.000000 0.000000 8.080969 7.599858 -35.064262 8.125102 0.707803 75.468830 -8.281702 -20.046886 -1.380111 0.000000 0.000000 0.000000 9.307775 -2.460510 33.352050 -12.117291 3.708834 -27.866244 -1.408685 6.774678 28.916124 10.464425 -4.243996 -28.699996 0.000000 0.000000 0.000000 -11.800932 -8.801428 3.176118 -39.984325 -23.440117 0.336950 -11.125767 -73.448874 12.005320 0.000000 0.000000 0.000000 19.768244 -2.794425 -1.848470 36.349698 22.192903 0.248072 -27.498961 76.906810 -16.908469 0.000000 0.000000 0.000000 
-0.865020 0.813389 5.937833 -0.146096 -11.507959 -18.886777 2.287984 -1.045119 -22.817787 2.796555 0.250365 77.703394 3.855464 5.998940 -6.572288 0.000000 0.000000 0.000000 6.827135 6.321712 -31.591793 7.976908 1.481439 66.318146 -8.067702 -19.603097 0.184795 0.000000 0.000000 0.000000 8.126271 -2.059417 32.038189 -12.804856 3.615559 -29.575031 -1.047327 4.791156 30.682006 10.562912 -4.921124 -28.477515 0.000000 0.000000 0.000000 -10.487404 -9.757758 4.078875 -41.429984 -25.546894 0.901748 1.200533 -67.805007 3.833131 0.000000 0.000000 0.000000 18.505256 -1.061073 -1.543346 38.131366 20.995021 0.036256 -3.107846 73.713153 1.473422 0.000000 0.000000 0.000000 
-0.863608 0.886180 5.956936 0.704497 -12.428160 -14.432025 2.479534 -0.950903 -22.768135 1.053751 2.063969 67.196472 1.238483 2.639764 0.152002 0.000000 0.000000 0.000000 5.101015 4.791580 -27.205455 6.028266 2.459692 54.744718 -5.084468 -14.035367 5.688459 0.000000 0.000000 0.000000 7.254330 -1.722311 28.718710 -9.989329 2.846152 -29.636136 -1.902681 5.228325 30.876832 10.328661 -4.606063 -29.352664 0.000000 0.000000 0.000000 -10.240409 -5.821574 2.509900 -46.137948 -21.068004 -0.451771 -5.801742 -64.223666 8.667546 0.000000 0.000000 0.000000 14.374716 -4.064899 -2.809016 45.893488 15.959449 -1.441561 21.396865 66.683964 17.861044 0.000000 0.000000 0.000000 
-0.863135 0.957439 5.977283 2.920606 -14.439499 -9.913147 1.366572 -1.117237 -22.476771 -0.537252 3.433722 57.014265 0.151628 2.577700 6.928612 0.000000 0.000000 0.000000 2.633282 3.562202 -23.835907 3.669796 3.156811 44.025322 -0.498103 -7.811931 12.998088 0.000000 0.000000 0.000000 5.586894 -1.168187 23.733765 -9.131582 2.573397 -30.300615 -1.313852 5.711945 32.469944 10.280967 -4.746822 -29.366730 0.000000 0.000000 0.000000 -9.203481 -1.069977 0.607767 -53.286891 -14.122727 -3.194964 -10.954487 -54.645297 10.575680 0.000000 0.000000 0.000000 12.028961 -8.382914 -4.816034 52.243532 9.223540 -4.385742 30.414878 55.450086 19.114152 0.000000 0.000000 0.000000 
-0.864465 1.009158 5.997411 2.888995 -16.087641 -7.705977 1.016514 -1.078348 -20.303243 0.453173 2.570819 50.192239 -3.010429 -1.456190 12.071831 0.000000 0.000000 0.000000 2.992454 2.781034 -19.310911 0.643166 3.376196 34.355004 3.267108 -4.981095 20.595757 0.000000 0.000000 0.000000 5.339665 -1.025599 20.632697 -7.678700 2.238402 -30.740957 -1.365756 5.293935 33.263133 10.700067 -5.465458 -28.219262 0.000000 0.000000 0.000000 -10.223359 2.771957 -0.913007 -55.651902 -6.843639 -6.550717 -12.205303 -45.420178 9.359056 0.000000 0.000000 0.000000 12.116489 -10.207727 -6.001077 56.352816 2.244532 -7.954967 26.287793 47.966876 13.964371 0.000000 0.000000 0.000000 
-0.865945 1.031974 6.014743 3.399338 -18.140123 -6.368823 0.516363 -1.028932 -16.946698 0.753879 2.191975 43.437946 -3.258093 -1.920023 13.059142 0.000000 0.000000 0.000000 2.138020 1.837374 -14.499491 -1.162747 3.007048 26.753045 5.526974 -2.198730 21.020326 0.000000 0.000000 0.000000 4.671091 -0.828614 17.870483 -6.341368 1.939231 -30.683544 -1.327676 6.093569 33.722422 10.462715 -5.682308 -26.902044 0.000000 0.000000 0.000000 -10.261711 5.292426 -2.016913 -56.580807 -2.031817 -8.759920 -8.218168 -38.568721 6.329932 0.000000 0.000000 0.000000 12.572722 -13.109728 -7.672894 57.827253 -3.278541 -10.826942 22.575583 43.793196 10.929372 0.000000 0.000000 0.000000 
-0.866664 1.034252 6.027748 2.981810 -21.009713 -5.476483 0.459038 -0.846056 -13.082413 0.975400 1.935560 37.356520 -2.517285 -1.594338 11.645446 0.000000 0.000000 0.000000 3.555893 1.369624 -10.987191 -3.509756 3.003406 21.673454 6.652073 -0.697212 20.258858 0.000000 0.000000 0.000000 5.150975 -0.794287 15.731632 -5.986640 1.863583 -30.974826 -0.993611 6.710962 34.966800 11.075445 -6.295647 -26.969779 0.000000 0.000000 0.000000 -10.000655 6.815456 -2.563938 -57.687523 1.156657 -10.296672 -3.231884 -32.666148 3.849951 0.000000 0.000000 0.000000 12.584735 -13.808150 -8.254415 57.223935 -6.160505 -12.200434 19.089544 39.550900 8.214018 0.000000 0.000000 0.000000 
-0.866199 1.026543 6.035974 3.008603 -22.787451 -5.474974 -0.090700 -0.769778 -10.135958 1.433569 1.585706 33.931589 -1.476882 -0.437947 10.401393 0.000000 0.000000 0.000000 3.485018 0.889373 -8.013094 -4.376292 2.885733 19.430233 7.132026 2.584672 15.809936 0.000000 0.000000 0.000000 5.633259 -0.792872 14.962951 -6.243137 1.895863 -30.705375 -0.929819 6.695127 35.269540 10.139409 -5.947278 -26.935152 0.000000 0.000000 0.000000 -9.364941 7.701347 -2.881145 -58.799615 2.859311 -11.011590 0.849626 -28.846715 2.340783 0.000000 0.000000 0.000000 12.984168 -16.077692 -9.704039 58.165680 -7.027928 -12.888354 15.012751 35.786434 5.923321 0.000000 0.000000 0.000000 
